<svg width="156" height="47" viewBox="0 0 156 47" fill="none" xmlns="http://www.w3.org/2000/svg">
<path d="M39.4792 40.2565C39.0641 40.2565 38.9258 40.0724 38.9258 39.6583V25.2135C38.9258 24.7996 39.0641 24.6155 39.4792 24.6155H43.697C47.8698 24.6155 49.2762 26.1565 49.2762 28.0887V29.4459C49.2762 30.5728 48.7458 31.47 47.5469 32.0219C49.1147 32.574 49.9907 33.54 49.9907 34.805V36.6223C49.9907 38.5543 48.5843 40.2565 44.4115 40.2565H39.4792ZM42.0381 27.0996V31.1024H43.7675C45.2437 31.1024 46.1881 30.5505 46.1881 29.3771V28.572C46.1881 27.4219 45.2429 27.0992 43.6983 27.0992L42.0381 27.0996ZM42.0381 33.4481V37.7724H44.4128C45.9574 37.7724 46.9256 37.2205 46.9256 36.0704V35.0354C46.9256 34.0465 45.9574 33.4483 44.4128 33.4483L42.0381 33.4481Z" fill="white"/>
<path d="M53.269 40.1475C52.8563 40.1475 52.7188 39.9647 52.7188 39.5535V25.2093C52.7188 24.7983 52.8563 24.6155 53.269 24.6155H58.0826C62.2317 24.6155 63.6299 26.4199 63.6299 28.3386V30.5085C63.6299 31.8562 62.9423 33.1351 61.1314 33.7747L63.5848 39.5535C63.7454 39.9191 63.4703 40.1475 63.0576 40.1475H60.902C60.5353 40.1475 60.4208 39.9191 60.2602 39.5535L58.0375 34.2317H55.8148V39.5535C55.8148 39.9647 55.6772 40.1475 55.2646 40.1475H53.269ZM55.8133 27.1736V31.6734H58.0826C59.6185 31.6734 60.5584 31.1023 60.5584 29.96V28.8865C60.5584 27.7446 59.6185 27.1732 58.0826 27.1732L55.8133 27.1736Z" fill="white"/>
<path d="M69.451 39.5535C69.451 39.9647 69.3135 40.1475 68.901 40.1475H66.9067C66.494 40.1475 66.3564 39.9647 66.3564 39.5535V25.2093C66.3564 24.7983 66.494 24.6155 66.9067 24.6155H68.901C69.3135 24.6155 69.451 24.7983 69.451 25.2093V39.5535Z" fill="white"/>
<path d="M76.1941 37.5892H81.3058C81.6954 37.5892 81.8789 37.7262 81.8789 38.1375V39.5764C81.8789 39.9874 81.6954 40.1475 81.3058 40.1475H73.5809C73.237 40.1475 73.0986 39.9419 73.0986 39.5535V25.2093C73.0986 24.7983 73.2362 24.6155 73.6489 24.6155H75.6432C76.0557 24.6155 76.1932 24.7983 76.1932 25.2093L76.1941 37.5892Z" fill="white"/>
<path d="M95.806 32.9531C95.9666 33.5697 96.104 34.4834 96.1958 35.2373C96.2874 34.4834 96.4474 33.5927 96.6083 32.9759L98.5793 25.1871C98.671 24.8217 98.831 24.6161 99.244 24.6161H100.986C101.376 24.6161 101.49 24.8217 101.399 25.1871L97.7771 39.5771C97.6852 39.9653 97.456 40.1481 97.0664 40.1481H95.118C94.7513 40.1481 94.5449 39.9425 94.4533 39.5771L92.4589 31.6055C92.3673 31.24 92.2073 30.3263 92.1381 29.5041C92.0463 30.3263 91.9087 31.24 91.8171 31.6282L89.7999 39.5771C89.7083 39.9653 89.4791 40.1481 89.0893 40.1481H87.1408C86.7972 40.1481 86.5908 39.9425 86.4992 39.5771L82.8548 25.1865C82.7632 24.8211 82.8777 24.6155 83.2903 24.6155H85.3075C85.7202 24.6155 85.9035 24.8211 85.9953 25.1865L87.9207 32.9753C88.0582 33.5236 88.1958 34.3002 88.2874 34.894C88.3793 34.323 88.5625 33.5463 88.7001 32.9753L90.6711 25.1865C90.7628 24.8211 90.9463 24.6155 91.3359 24.6155H93.2155C93.6282 24.6155 93.7886 24.8211 93.8804 25.1865L95.806 32.9531Z" fill="white"/>
<path d="M103.205 28.3384C103.205 26.4199 104.626 24.6155 108.775 24.6155C112.924 24.6155 114.345 26.4199 114.345 28.3384V36.7898C114.345 38.7083 112.924 40.5127 108.775 40.5127C104.626 40.5127 103.205 38.7083 103.205 36.7898V28.3384ZM111.251 28.8867C111.251 27.7446 110.311 27.1734 108.775 27.1734C107.239 27.1734 106.322 27.7444 106.322 28.8867V36.2415C106.322 37.3836 107.239 37.9548 108.775 37.9548C110.312 37.9548 111.251 37.3838 111.251 36.2415V28.8867Z" fill="white"/>
<path d="M118.526 40.1475C118.113 40.1475 117.976 39.9647 117.976 39.5535V25.2093C117.976 24.7983 118.113 24.6155 118.526 24.6155H123.339C127.489 24.6155 128.887 26.4199 128.887 28.3386V30.5085C128.887 31.8562 128.199 33.1351 126.388 33.7747L128.841 39.5535C129.002 39.9191 128.727 40.1475 128.314 40.1475H126.158C125.792 40.1475 125.677 39.9191 125.517 39.5535L123.294 34.2317H121.071V39.5535C121.071 39.9647 120.934 40.1475 120.521 40.1475H118.526ZM121.07 27.1736V31.6734H123.339C124.875 31.6734 125.815 31.1023 125.815 29.96V28.8865C125.815 27.7446 124.875 27.1732 123.339 27.1732L121.07 27.1736Z" fill="white"/>
<path d="M143.898 39.5541C144.105 39.8512 144.013 40.1481 143.623 40.1481H140.941C140.529 40.1481 140.322 39.874 140.116 39.5771L135.853 33.5927H135.532V39.5771C135.532 39.9653 135.395 40.1481 134.982 40.1481H132.988C132.575 40.1481 132.438 39.9653 132.438 39.5771V25.1865C132.438 24.7983 132.575 24.6155 132.988 24.6155H134.982C135.395 24.6155 135.532 24.7983 135.532 25.1865V31.3307H135.83L139.864 25.1865C140.048 24.8896 140.368 24.6155 140.781 24.6155H143.027C143.44 24.6155 143.509 24.8896 143.302 25.1865L138.512 32.2444L143.898 39.5541Z" fill="white"/>
<path d="M152.56 28.7498C152.56 27.6305 151.826 27.1052 150.338 27.1052C148.849 27.1052 148.091 27.6305 148.091 28.7498V29.0925C148.091 29.8919 148.664 30.1888 149.031 30.3253L153.019 31.7415C154.578 32.2898 155.724 33.3405 155.724 35.0307V36.7896C155.724 38.7081 154.348 40.5125 150.268 40.5125C146.188 40.5125 144.789 38.7085 144.789 36.79V35.3508C144.789 34.9398 144.949 34.757 145.362 34.757H147.288C147.677 34.757 147.815 34.9398 147.815 35.3508V36.3788C147.815 37.4979 148.709 38.0234 150.245 38.0234C151.781 38.0234 152.698 37.4979 152.698 36.3788V35.6475C152.698 34.6654 151.621 34.277 150.75 33.9571L147.196 32.6094C146.096 32.1985 145.088 31.0336 145.088 29.6633V28.3384C145.088 26.4199 146.28 24.6155 150.337 24.6155C154.325 24.6155 155.586 26.4199 155.586 28.3384V29.276C155.586 29.6644 155.426 29.847 155.036 29.847H153.111C152.698 29.847 152.561 29.6644 152.561 29.276L152.56 28.7498Z" fill="white"/>
<path fill-rule="evenodd" clip-rule="evenodd" d="M0 0H2.68433C5.59975 0 7.96314 2.36339 7.96314 5.27881V19.9824C9.70199 19.1926 11.5901 18.7851 13.4999 18.7875C20.9558 18.7875 27 24.8874 27 32.4119C27 39.9363 20.9558 46.0363 13.4999 46.0363C6.06473 46.0363 0.033848 39.9699 0.000121874 32.474L0 0ZM13.4993 40.1883C17.7942 40.1883 21.2758 36.7067 21.2758 32.4118C21.2758 28.1169 17.7942 24.6353 13.4993 24.6353C9.20443 24.6353 5.72285 28.1175 5.72285 32.4118C5.72285 36.7061 9.20467 40.1883 13.4993 40.1883Z" fill="url(#paint0_linear_46_1014)"/>
<path d="M8.83362 4.9765H11.5182C14.4336 4.9765 16.7971 7.33989 16.7971 10.2553V18.4142C14.3708 17.8542 11.7579 17.8542 8.83435 18.7253L8.83362 4.9765Z" fill="url(#paint1_linear_46_1014)"/>
<path d="M17.5428 12.8153H19.7294C22.6449 12.8153 25.0084 15.1787 25.0084 18.0941V23.64C23.8882 22.2093 20.4047 18.9742 17.5428 18.601V12.8153Z" fill="url(#paint2_linear_46_1014)"/>
<defs>
<linearGradient id="paint0_linear_46_1014" x1="-1.63807" y1="-0.999994" x2="23.7421" y2="38.8501" gradientUnits="userSpaceOnUse">
<stop stop-color="#007AEB"/>
<stop offset="0.416839" stop-color="#008CE7"/>
<stop offset="1" stop-color="#00DBD3"/>
</linearGradient>
<linearGradient id="paint1_linear_46_1014" x1="-1.63807" y1="-0.999994" x2="23.7421" y2="38.8501" gradientUnits="userSpaceOnUse">
<stop stop-color="#007AEB"/>
<stop offset="0.416839" stop-color="#008CE7"/>
<stop offset="1" stop-color="#00DBD3"/>
</linearGradient>
<linearGradient id="paint2_linear_46_1014" x1="-1.63807" y1="-0.999994" x2="23.7421" y2="38.8501" gradientUnits="userSpaceOnUse">
<stop stop-color="#007AEB"/>
<stop offset="0.416839" stop-color="#008CE7"/>
<stop offset="1" stop-color="#00DBD3"/>
</linearGradient>
</defs>
</svg>
